<svg xmlns="http://www.w3.org/2000/svg" width="1600" height="520" viewBox="0 0 1600 520" role="img" aria-label="AI Auto Clipper logo">
  <defs>
    <linearGradient id="bg" x1="0" x2="1" y1="0" y2="1">
      <stop offset="0%" stop-color="#081421"/>
      <stop offset="55%" stop-color="#0f2f42"/>
      <stop offset="100%" stop-color="#083242"/>
    </linearGradient>
    <linearGradient id="stroke" x1="0" x2="1" y1="0" y2="0">
      <stop offset="0%" stop-color="#39e7ff"/>
      <stop offset="100%" stop-color="#74ffd1"/>
    </linearGradient>
    <linearGradient id="txt" x1="0" x2="1" y1="0" y2="0">
      <stop offset="0%" stop-color="#ffffff"/>
      <stop offset="100%" stop-color="#d8feff"/>
    </linearGradient>
    <filter id="glow" x="-30%" y="-30%" width="160%" height="160%">
      <feDropShadow dx="0" dy="0" stdDeviation="7" flood-color="#43f0ff" flood-opacity="0.7"/>
    </filter>
  </defs>

  <rect width="1600" height="520" rx="28" fill="url(#bg)"/>
  <rect x="20" y="20" width="1560" height="480" rx="22" fill="none" stroke="url(#stroke)" stroke-width="3"/>

  <g opacity="0.2" stroke="#a3f4ff" stroke-width="2">
    <path d="M86 125 H500" />
    <path d="M86 395 H500" />
    <path d="M1100 125 H1514" />
    <path d="M1100 395 H1514" />
  </g>

  <g transform="translate(112, 130)">
    <rect x="0" y="0" width="250" height="250" rx="28" fill="#0a1f2d" stroke="#66f4ff" stroke-width="4"/>
    <path d="M68 74 L68 176 L182 125 Z" fill="#66f4ff"/>
    <rect x="186" y="92" width="24" height="68" rx="8" fill="#66f4ff"/>
    <rect x="218" y="92" width="24" height="68" rx="8" fill="#66f4ff"/>
  </g>

  <g transform="translate(422, 136)" filter="url(#glow)">
    <text x="0" y="110" font-family="'Segoe UI', Tahoma, Arial, sans-serif" font-size="112" font-weight="800" letter-spacing="4" fill="url(#txt)">AI AUTO CLIPPER</text>
    <text x="2" y="182" font-family="'Segoe UI', Tahoma, Arial, sans-serif" font-size="40" font-weight="600" letter-spacing="5" fill="#80faff">LOCAL-FIRST VIRAL CLIP ENGINE</text>
  </g>

  <g transform="translate(430, 390)">
    <rect x="0" y="0" width="736" height="58" rx="12" fill="#0c2736" stroke="#4deeff" stroke-width="2"/>
    <text x="28" y="39" font-family="'Consolas', 'Courier New', monospace" font-size="28" fill="#d8fdff">whisper + ollama + yt-dlp + terminal ux</text>
  </g>
</svg>
